<svg width="33" height="33" viewBox="0 0 33 33" fill="none" xmlns="http://www.w3.org/2000/svg">
<g id="search_24px">
<path id="icon/action/search_24px" fill-rule="evenodd" clip-rule="evenodd" d="M20.5769 19.6006H21.6631L28.5244 26.4756L26.4756 28.5244L19.6006 21.6631V20.5769L19.2294 20.1919C17.6619 21.5394 15.6269 22.3506 13.4131 22.3506C8.4769 22.3506 4.47565 18.3494 4.47565 13.4131C4.47565 8.47687 8.4769 4.47562 13.4131 4.47562C18.3494 4.47562 22.3506 8.47687 22.3506 13.4131C22.3506 15.6269 21.5394 17.6619 20.1919 19.2294L20.5769 19.6006ZM7.22567 13.4131C7.22567 16.8369 9.98942 19.6006 13.4132 19.6006C16.8369 19.6006 19.6007 16.8369 19.6007 13.4131C19.6007 9.98938 16.8369 7.22562 13.4132 7.22562C9.98942 7.22562 7.22567 9.98938 7.22567 13.4131Z" fill="#BCBCBC"/>
</g>
</svg>
